<?xml version="1.0" standalone="no"?>
<!DOCTYPE svg PUBLIC "-//W3C//DTD SVG 20010904//EN"
 "http://www.w3.org/TR/2001/REC-SVG-20010904/DTD/svg10.dtd">
<svg version="1.0" xmlns="http://www.w3.org/2000/svg"
 width="101.000000pt" height="101.000000pt" viewBox="0 0 101.000000 101.000000"
 preserveAspectRatio="xMidYMid meet">
<metadata>
Created by potrace 1.16, written by Peter Selinger 2001-2019
</metadata>
<g transform="translate(0.000000,101.000000) scale(0.100000,-0.100000)"
fill="#000000" stroke="none">
<path d="M535 806 c-27 -8 -53 -12 -57 -9 -5 2 -8 -1 -8 -7 0 -7 -7 -10 -15
-6 -8 3 -15 1 -15 -4 0 -5 -7 -6 -17 -3 -11 4 -14 3 -9 -5 5 -8 2 -10 -8 -6
-9 3 -16 1 -16 -6 0 -6 -4 -9 -9 -6 -21 13 -175 -113 -158 -130 2 -3 1 -21 -3
-40 -5 -20 -4 -34 2 -34 5 0 7 -4 4 -9 -3 -4 2 -17 10 -27 9 -10 13 -12 9 -4
-4 8 3 4 15 -10 12 -14 18 -18 14 -10 -4 8 3 5 15 -8 12 -12 27 -19 33 -16 7
5 9 2 5 -9 -6 -16 15 -42 26 -30 4 3 16 -6 28 -21 12 -15 23 -25 26 -23 2 3
17 -9 33 -25 17 -16 35 -26 41 -23 7 5 10 -4 8 -28 -2 -20 0 -39 4 -43 9 -9
46 -13 45 -5 -2 19 3 31 13 31 5 0 7 -6 3 -12 -4 -7 -4 -10 1 -6 4 4 14 0 22
-10 10 -11 12 -12 8 -2 -4 10 -2 9 8 -2 8 -10 17 -15 20 -11 4 3 7 2 7 -4 0
-10 85 -11 96 -1 3 4 8 30 10 57 2 28 6 75 9 104 2 28 4 56 5 60 0 4 8 7 17 5
14 -2 18 6 19 40 2 28 -1 40 -9 35 -6 -4 -8 0 -4 10 3 10 2 17 -3 17 -6 0 -10
29 -10 65 0 47 4 64 13 62 6 -1 11 4 10 11 -2 6 0 12 5 12 11 0 6 68 -6 83
-16 18 -173 20 -237 3z m214 -20 c7 -8 11 -27 9 -43 -3 -28 -3 -28 -83 -29
-123 -2 -206 -31 -293 -102 -35 -28 -46 -32 -53 -21 -5 8 -9 18 -9 22 0 4 -14
14 -31 21 l-31 13 50 37 c99 72 226 114 348 115 59 1 85 -3 93 -13z m-18 -156
c4 -36 11 -78 18 -93 16 -40 14 -50 -9 -44 -13 3 -20 0 -20 -9 0 -17 -12 -18
-27 -3 -17 17 -54 6 -76 -23 -18 -24 -18 -30 -7 -57 13 -33 45 -47 80 -38 15
4 20 0 20 -13 0 -36 -12 -50 -41 -50 -22 0 -34 8 -49 32 -29 50 -40 59 -63 56
-18 -2 -23 -12 -29 -51 -10 -72 -18 -69 -18 7 0 83 -11 107 -48 104 -35 -2
-52 8 -52 31 0 10 -7 24 -16 32 -13 10 -17 10 -25 -2 -5 -8 -7 -24 -4 -36 3
-13 1 -23 -5 -23 -5 0 -10 12 -10 28 0 15 -3 37 -6 48 -8 31 54 89 130 124 97
45 101 45 102 8 1 -35 33 -68 65 -68 33 0 61 38 57 76 -3 27 -1 34 11 32 12
-2 18 -21 22 -68z"/>
</g>
</svg>
